<?xml version="1.0" encoding="utf-8"?>
<!-- Generator: Adobe Illustrator 26.1.0, SVG Export Plug-In . SVG Version: 6.00 Build 0)  -->
<svg version="1.1" id="Capa_1" xmlns="http://www.w3.org/2000/svg" xmlns:xlink="http://www.w3.org/1999/xlink" x="0px" y="0px"
	 viewBox="0 0 40 40" style="enable-background:new 0 0 40 40;" xml:space="preserve">
<style type="text/css">
	.st0{fill:#FEF282;}
</style>
<g id="Capa_2_00000008139321680972052610000003953108884219404201_">
	<g id="Layer_1">
		<path class="st0" d="M39.2,18.9c-0.8-2.7-2.3-5.1-4.4-7c-0.3-1.3-0.8-2.6-1.5-3.8C28.2-1.2,15.1-2.2,8,5.3
			c-2.2,2.3-3.7,5.2-4.2,8.4c-0.5,0.6-1,1.3-1.5,2c-5.6,8.9-0.2,20.8,9.7,23.5c2.7,0.8,5.6,0.7,8.4-0.1c1.3,0.4,2.7,0.6,4.1,0.6
			C35.1,39.6,42.3,28.7,39.2,18.9z M36.4,26.5c-1.1,5.2-5.4,9.2-10.7,10c2.8-2.2,5-5,6.4-8.4c1-2.6,1.1-5.4,0.1-8.1l-0.1,0
			c-0.3,1.2-0.8,2.4-1.3,3.5c-1.1,2.1-2.2,4.1-3.4,6.2C23.8,36,16,38.1,9.8,34.6c-5.3-3-7.8-9.4-5.9-15.2c0.6,3.2,2.1,6.1,4.1,8.6
			c1.8,2.1,4.2,3.5,7,4l0.1-0.1c-0.9-0.9-1.7-1.8-2.5-2.8c-1.4-2-2.5-4-3.8-6C5.2,17.1,7.1,9.2,13.1,5.5C18.9,2,26.3,3.5,30.2,9
			c-3.5-1.4-7.3-1.8-11-1.1c-2.7,0.5-5.2,2-6.8,4.2l0.1,0.1c1.2-0.4,2.4-0.6,3.7-0.8c2.4-0.3,4.7-0.3,7.1-0.4
			c7.1-0.3,13.1,5.1,13.4,12.2C36.7,24.3,36.6,25.4,36.4,26.5z"/>
	</g>
</g>
</svg>
