<svg xmlns="http://www.w3.org/2000/svg" xmlns:xlink="http://www.w3.org/1999/xlink" width="217.802" height="96.089" viewBox="0 0 217.802 96.089">
  <defs>
    <clipPath id="clip-path">
      <rect id="Rectángulo_286" data-name="Rectángulo 286" width="217.802" height="96.089" transform="translate(0 0)" fill="none"/>
    </clipPath>
  </defs>
  <g id="Grupo_28" data-name="Grupo 28" transform="translate(0 0)">
    <rect id="Rectángulo_284" data-name="Rectángulo 284" width="9.275" height="35.427" transform="translate(1.178 42.489)" fill="#fff"/>
    <g id="Grupo_27" data-name="Grupo 27">
      <g id="Grupo_26" data-name="Grupo 26" clip-path="url(#clip-path)">
        <path id="Trazado_41" data-name="Trazado 41" d="M32.285,69.47c-1.836.464-2.416-.315-2.416-2.049V22.53H20.595V71.016c0,2.57,1.034,7.588,7.22,7.588a15.189,15.189,0,0,0,6.693-1.434l-1.529-7.9s-.4.125-.694.2" fill="#fff"/>
        <path id="Trazado_42" data-name="Trazado 42" d="M5.816,22.53a5.815,5.815,0,1,0,5.816,5.816A5.816,5.816,0,0,0,5.816,22.53" fill="#fff"/>
        <path id="Trazado_43" data-name="Trazado 43" d="M64.494,62.644a6.685,6.685,0,1,1-13.37,0V42.489H41.849V62.644c0,8.8,4.841,15.96,13.641,15.96a12.472,12.472,0,0,0,9.94-4.477c.955,1.8,3.177,3.991,8.339,3.991V42.776H64.494Z" fill="#fff"/>
        <path id="Trazado_44" data-name="Trazado 44" d="M134.861,78.176v-21.3c0-8.2-4.352-14.871-12.552-14.871a11.408,11.408,0,0,0-10.233,5.662,12.131,12.131,0,0,0-19.429-1.477c-1.111-1.659-3.375-3.412-7.993-3.412v35.4h9.275v-21.3a5.6,5.6,0,1,1,11.191,0v21.3h9.275v-21.3a5.6,5.6,0,1,1,11.191,0v21.3Z" fill="#fff"/>
        <path id="Trazado_45" data-name="Trazado 45" d="M167.009,74.127c.955,1.8,3.177,3.991,8.339,3.991V42.691H167.43l-.656,3.526A12.485,12.485,0,0,0,157.069,42c-8.8,0-13.641,7.159-13.641,15.96v4.68c0,8.8,4.84,15.96,13.641,15.96a12.472,12.472,0,0,0,9.94-4.477m-.936-11.483h0a6.686,6.686,0,0,1-13.371,0v-4.68a6.686,6.686,0,0,1,13.371,0Z" fill="#fff"/>
        <path id="Trazado_46" data-name="Trazado 46" d="M203.206,37.151a15.185,15.185,0,0,1-4.587-.714,15.237,15.237,0,0,1-4.588.714,14.507,14.507,0,0,1-9.765-25.316,14.621,14.621,0,0,1,28.706,0,14.508,14.508,0,0,1-9.766,25.316m-8.924-3.19c4.28,0,7.572-2.578,9.581-4.739a21.075,21.075,0,0,0,5.9-11.658,8.6,8.6,0,0,1,.924,7.323c-1.559,5.253-7.192,9.031-7.192,9.031a11.4,11.4,0,0,0,11.062-11.363,11.087,11.087,0,0,0-5.835-10.038,21,21,0,0,0-10.1-2.531,20.323,20.323,0,0,0-7.28,1.31c.353-.787,2.058-4.721,8.436-4.721,3.655,0,6.548,1.427,8.7,2.221a11.718,11.718,0,0,0-9.852-5.547c-7.538,0-10.934,6.4-11.3,10.43-.505,5.508,2.956,13.207,7.518,16.96a7.863,7.863,0,0,1-6.712-2.908c-2.873-3.336-3.684-9.248-3.986-10.716a11.439,11.439,0,0,0,10.147,16.946" fill="#fff36e"/>
        <path id="Trazado_47" data-name="Trazado 47" d="M132.022,95.976h-1.668l-.463-1.679h-2.175l-.462,1.679h-1.578l2.423-7.89h1.511ZM128.009,93.1h1.578l-.789-2.841Z" fill="#fff36e"/>
        <path id="Trazado_48" data-name="Trazado 48" d="M133.553,88.086h1.6v6.436h2.513v1.454h-4.114Z" fill="#fff36e"/>
        <path id="Trazado_49" data-name="Trazado 49" d="M139.367,88.086h1.6v6.436h2.513v1.454h-4.114Z" fill="#fff36e"/>
        <rect id="Rectángulo_285" data-name="Rectángulo 285" width="1.646" height="7.89" transform="translate(145.239 88.086)" fill="#fff36e"/>
        <path id="Trazado_50" data-name="Trazado 50" d="M154.819,95.976h-1.668l-.463-1.679h-2.175l-.462,1.679h-1.578l2.423-7.89h1.511ZM150.806,93.1h1.578l-.789-2.841Z" fill="#fff36e"/>
        <path id="Trazado_51" data-name="Trazado 51" d="M157.815,90.96v5.016H156.35v-7.89h1.555l2.288,4.813V88.086h1.454v7.89h-1.454Z" fill="#fff36e"/>
        <path id="Trazado_52" data-name="Trazado 52" d="M167.338,93.068h1.544v.406a2.452,2.452,0,0,1-2.558,2.615,2.427,2.427,0,0,1-2.582-2.582v-2.93a2.476,2.476,0,0,1,2.615-2.6,2.39,2.39,0,0,1,2.525,2.57v.327h-1.544v-.338c0-.722-.383-1.15-1-1.15s-.992.428-.992,1.15v2.987c0,.732.383,1.15.992,1.15s1-.418,1-1.15Z" fill="#fff36e"/>
        <path id="Trazado_53" data-name="Trazado 53" d="M170.977,95.977v-7.89h4.283V89.5h-2.682v1.758h2.231v1.319h-2.231v2h2.739v1.409Z" fill="#fff36e"/>
      </g>
    </g>
  </g>
</svg>
